<svg width="50" height="50" viewBox="0 0 50 50" fill="none" xmlns="http://www.w3.org/2000/svg">
<path fill-rule="evenodd" clip-rule="evenodd" d="M42 25.0041C42 22.7725 39.1805 20.6589 34.8558 19.3457C35.8547 14.9785 35.4092 11.5051 33.4557 10.392C33.0047 10.1316 32.479 10.0082 31.9035 10.0082V11.5407C32.2217 11.5407 32.479 11.6038 32.6948 11.7189C33.6383 12.2535 34.0451 14.2932 33.7269 16.9168C33.6494 17.561 33.5249 18.2409 33.3727 18.9345C32.0142 18.6055 30.5311 18.3505 28.9733 18.1861C28.0381 16.9168 27.0669 15.7626 26.0902 14.7537C28.348 12.6702 30.4674 11.5325 31.909 11.5325V10C30.0026 10 27.5096 11.3461 24.9862 13.6818C22.4627 11.3598 19.9697 10.0274 18.0633 10.0274V11.5599C19.4966 11.5599 21.6243 12.6921 23.8849 14.7592C22.9137 15.7681 21.9453 16.914 21.0239 18.1861C19.4578 18.3505 17.9748 18.6055 16.6162 18.94C16.4557 18.2546 16.3395 17.5884 16.2565 16.9496C15.93 14.3261 16.334 12.2864 17.2692 11.7436C17.4767 11.6202 17.7479 11.5654 18.0661 11.5654V10.0356C17.485 10.0356 16.9565 10.159 16.5 10.4194C14.5521 11.5325 14.1149 15.0005 15.1221 19.3539C10.8057 20.6698 8 22.778 8 25.0041C8 27.2357 10.8195 29.3494 15.1442 30.6625C14.1453 35.0297 14.5908 38.5032 16.5443 39.6162C16.9953 39.8766 17.521 40 18.1048 40C20.0112 40 22.5042 38.6539 25.0277 36.3182C27.5511 38.6402 30.0441 39.9726 31.9505 39.9726C32.5316 39.9726 33.0601 39.8492 33.5166 39.5888C35.4645 38.4757 35.9017 35.0078 34.8945 30.6543C39.1943 29.3439 42 27.2275 42 25.0041ZM28.1598 25.0041C28.1598 23.2715 26.7432 21.8651 24.9917 21.8651C23.243 21.8651 21.8236 23.2688 21.8236 25.0041C21.8236 26.7395 23.2402 28.1431 24.9917 28.1431C26.7432 28.1404 28.1598 26.7367 28.1598 25.0041ZM32.9771 20.4231C32.7197 21.3086 32.4015 22.2215 32.0418 23.1344C31.7568 22.5861 31.4608 22.0351 31.1343 21.4868C30.8161 20.9385 30.4757 20.4012 30.1354 19.8803C31.1204 20.0256 32.0695 20.2038 32.9771 20.4231ZM29.8034 27.7374C29.2638 28.664 28.7077 29.544 28.1322 30.361C27.1001 30.4514 26.0542 30.498 25 30.498C23.9541 30.498 22.9082 30.4487 21.8817 30.3664C21.3062 29.5495 20.7445 28.6777 20.2049 27.7566C19.6792 26.8574 19.2005 25.9444 18.7633 25.0233C19.1922 24.1022 19.6792 23.1838 20.1966 22.2846C20.7362 21.3579 21.2923 20.4779 21.8678 19.661C22.8999 19.5705 23.9458 19.5239 25 19.5239C26.0459 19.5239 27.0918 19.5732 28.1183 19.6555C28.6938 20.4724 29.2555 21.3442 29.7951 22.2654C30.3208 23.1646 30.7995 24.0775 31.2367 24.9986C30.7995 25.917 30.3236 26.8354 29.8034 27.7374ZM32.0418 26.8436C32.4154 27.7648 32.7336 28.6832 32.9992 29.5769C32.0916 29.7962 31.1343 29.9826 30.1437 30.1252C30.484 29.5961 30.8216 29.0533 31.1426 28.4968C31.458 27.9485 31.7568 27.3919 32.0418 26.8436ZM25.0138 34.1689C24.3691 33.5109 23.7244 32.7762 23.0881 31.973C23.7106 32.0004 24.3498 32.0223 24.9945 32.0223C25.6447 32.0223 26.2894 32.0086 26.9202 31.973C26.2949 32.7762 25.6502 33.5109 25.0138 34.1689ZM19.8591 30.1252C18.874 29.9799 17.925 29.8017 17.0174 29.5824C17.2747 28.6969 17.5929 27.784 17.9526 26.8711C18.2376 27.4194 18.5337 27.9704 18.8602 28.5187C19.1867 29.0697 19.5187 29.6043 19.8591 30.1252ZM24.9779 15.8366C25.6226 16.4946 26.2673 17.2293 26.9036 18.0325C26.2811 18.0051 25.6419 17.9832 24.9972 17.9832C24.347 17.9832 23.7023 17.9969 23.0715 18.0325C23.6968 17.2293 24.3415 16.4946 24.9779 15.8366ZM19.8507 19.8803C19.5104 20.4094 19.1729 20.9522 18.8519 21.5087C18.5337 22.057 18.2349 22.6081 17.9499 23.1564C17.5763 22.2352 17.2581 21.3168 16.9925 20.4231C17.9028 20.2093 18.8602 20.0256 19.8507 19.8803ZM13.5781 28.4776C11.1239 27.4413 9.53841 26.0815 9.53841 25.0041C9.53841 23.9267 11.1266 22.5587 13.5781 21.5307C14.173 21.2757 14.826 21.0509 15.4984 20.8371C15.894 22.1831 16.4142 23.584 17.0589 25.0178C16.4225 26.4461 15.9079 27.8388 15.5205 29.1794C14.8343 28.9655 14.1813 28.7325 13.5781 28.4776ZM17.3079 38.2893C16.3644 37.7547 15.9577 35.7151 16.2759 33.0915C16.3534 32.4472 16.4779 31.7673 16.63 31.0737C17.9886 31.4027 19.4717 31.6577 21.0295 31.8222C21.9647 33.0915 22.9359 34.2456 23.9126 35.2545C21.652 37.3353 19.5326 38.4757 18.091 38.4757C17.7783 38.4675 17.5155 38.4072 17.3079 38.2893ZM33.7463 33.0586C34.0728 35.6822 33.6688 37.7218 32.7336 38.2646C32.526 38.388 32.2549 38.4428 31.9367 38.4428C30.5034 38.4428 28.3757 37.3106 26.1151 35.2435C27.0863 34.2347 28.0547 33.0887 28.9761 31.8167C30.5422 31.6522 32.0252 31.3972 33.3838 31.06C33.5443 31.7536 33.6688 32.4198 33.7463 33.0586ZM36.4136 28.4776C35.8187 28.7325 35.1657 28.9573 34.4933 29.1712C34.0977 27.8251 33.5775 26.4242 32.9328 24.9904C33.5692 23.5621 34.0838 22.1694 34.4712 20.8288C35.1574 21.0427 35.8076 21.2757 36.4191 21.5279C38.8734 22.5642 40.4588 23.924 40.4588 25.0014C40.4533 26.0815 38.8678 27.4468 36.4136 28.4776Z" fill="#00D8FF"/>
</svg>
