<svg width="143" height="28" viewBox="0 0 143 28" fill="none" xmlns="http://www.w3.org/2000/svg">
<path d="M20.9531 16.9297C20.9531 18.3828 20.7012 19.7129 20.1973 20.9199C19.7051 22.1152 19.0078 23.1465 18.1055 24.0137C17.2148 24.8926 16.1543 25.5898 14.9238 26.1055C13.7051 26.6211 12.3809 26.9199 10.9512 27.002C9.29883 27.1074 7.8457 26.8906 6.5918 26.3516C5.34961 25.8125 4.30664 25.0391 3.46289 24.0312C2.60742 23.0234 1.95703 21.8223 1.51172 20.4277C1.06641 19.0332 0.826172 17.5215 0.791016 15.8926L4.5 15.4883C4.46484 16.5547 4.52344 17.4863 4.67578 18.2832C4.83984 19.0801 5.06836 19.7656 5.36133 20.3398C5.64258 20.9141 5.97656 21.3887 6.36328 21.7637C6.75 22.1387 7.14844 22.4434 7.55859 22.6777C8.54297 23.2285 9.64453 23.498 10.8633 23.4863C11.7891 23.416 12.5918 23.2402 13.2715 22.959C13.9629 22.6895 14.5488 22.3438 15.0293 21.9219C15.5098 21.4883 15.9082 21.002 16.2246 20.4629C16.5293 19.9355 16.7812 19.3555 16.9805 18.7227C17.1562 18.1016 17.2793 17.4629 17.3496 16.8066C17.4199 16.1504 17.4551 15.4941 17.4551 14.8379C17.4551 14.498 17.4492 14.123 17.4375 13.7129C17.4375 13.3027 17.4316 12.8574 17.4199 12.377C17.3848 11.4277 17.3496 10.4316 17.3145 9.38867C17.2793 8.3457 17.2324 7.30859 17.1738 6.27734C17.1504 5.76172 17.1211 5.27539 17.0859 4.81836C17.0625 4.34961 17.0391 3.91016 17.0156 3.5C16.9922 3.125 16.9629 2.72656 16.9277 2.30469C16.8926 1.88281 16.8574 1.52539 16.8223 1.23242C16.7988 0.939453 16.7695 0.792969 16.7344 0.792969L20.5488 0.722656C20.5723 0.746094 20.6016 1.02734 20.6367 1.56641C20.6602 2.11719 20.6836 2.84375 20.707 3.74609C20.7422 4.63672 20.7773 5.65625 20.8125 6.80469C20.8242 7.37891 20.8359 7.95898 20.8477 8.54492C20.8594 9.13086 20.8711 9.72266 20.8828 10.3203C20.9062 11.5273 20.9238 12.7051 20.9355 13.8535C20.9473 15.002 20.9531 16.0273 20.9531 16.9297ZM46.5117 13.9414C46.5234 14.4805 46.5059 15.0195 46.459 15.5586C46.4238 16.0977 46.3652 16.6309 46.2832 17.1582C46.1074 18.2246 45.832 19.2383 45.457 20.1992C45.0938 21.1484 44.6191 22.0215 44.0332 22.8184C43.4473 23.6387 42.7617 24.3359 41.9766 24.9102C41.1914 25.5078 40.2891 25.9707 39.2695 26.2988C38.25 26.627 37.125 26.791 35.8945 26.791C34.6523 26.791 33.5625 26.5977 32.625 26.2109C31.6875 25.8125 30.873 25.2793 30.1816 24.6113C29.4902 23.9316 28.9043 23.1523 28.4238 22.2734C27.9434 21.3828 27.5625 20.457 27.2812 19.4961C26.9883 18.5234 26.7715 17.5391 26.6309 16.543C26.4902 15.5352 26.4082 14.5742 26.3848 13.6602C26.373 13.0742 26.373 12.4648 26.3848 11.832C26.3965 11.1992 26.4199 10.5371 26.4551 9.8457C26.5137 8.66211 26.6191 7.28516 26.7715 5.71484C26.9355 4.14453 27.1816 2.46875 27.5098 0.6875L31.3242 1.23242C31.0547 2.39258 30.8379 3.51172 30.6738 4.58984C30.5098 5.66797 30.3809 6.68164 30.2871 7.63086C30.1934 8.58008 30.1289 9.44727 30.0938 10.2324C30.0703 11.0176 30.0586 11.6914 30.0586 12.2539C30.0586 12.582 30.0645 12.9277 30.0762 13.291C30.0996 13.6543 30.123 14.041 30.1465 14.4512C30.2051 15.2598 30.3105 16.0801 30.4629 16.9121C30.6152 17.7441 30.8379 18.5586 31.1309 19.3555C31.4121 20.1641 31.7871 20.8672 32.2559 21.4648C32.7246 22.0742 33.2988 22.5723 33.9785 22.959C34.6582 23.334 35.4668 23.5215 36.4043 23.5215C38.3613 23.5215 39.9082 22.6602 41.0449 20.9375C41.5957 20.1055 42.0117 19.0977 42.293 17.9141C42.5859 16.7305 42.7207 15.4062 42.6973 13.9414C42.6855 12.7578 42.6152 11.4922 42.4863 10.1445C42.3926 8.97266 42.2461 7.63086 42.0469 6.11914C41.8477 4.60742 41.5723 3.00195 41.2207 1.30273L44.9648 0.792969C45.3398 2.72656 45.627 4.49609 45.8262 6.10156C46.0254 7.69531 46.1777 9.07812 46.2832 10.25C46.3418 10.9297 46.3887 11.5801 46.4238 12.2012C46.4707 12.8105 46.5 13.3906 46.5117 13.9414ZM52.1016 0.863281L55.8105 0.6875L71.543 20.1641L71.2617 0.951172L75.1816 1.23242L75.3926 25.3848L71.6133 25.6836L55.8809 6.89258L56.1094 25.8594L52.4355 26L52.1016 0.863281ZM105.398 26.4043L101.25 27.002C100.559 24.6113 99.8262 22.2383 99.0527 19.8828L84.9023 20.498C84.0586 22.7129 83.2559 24.957 82.4941 27.2305L78.5039 26.6855C80.1562 22.2559 81.9844 17.8965 83.9883 13.6074C86.0039 9.31836 88.1484 5.07031 90.4219 0.863281L95.3438 0.951172C97.3594 5.01758 99.1992 9.16602 100.863 13.3965C102.527 17.6152 104.039 21.9512 105.398 26.4043ZM92.5137 3.78125C91.3301 6.03125 90.2109 8.29297 89.1562 10.5664C88.1016 12.8281 87.0938 15.1191 86.1328 17.4395L98.0156 16.9297C97.2188 14.6797 96.3633 12.4707 95.4492 10.3027C94.5352 8.13477 93.5566 5.96094 92.5137 3.78125ZM109.301 0.951172L113.221 1.0918L113.449 25.3848H109.916L109.301 0.951172ZM142.312 13.0801C142.312 14.709 142.031 16.1855 141.469 17.5098C140.895 18.8223 140.121 19.9941 139.148 21.0254C138.188 22.0449 137.062 22.918 135.773 23.6445C135.129 24.0078 134.467 24.3418 133.787 24.6465C133.107 24.9512 132.41 25.2207 131.695 25.4551C130.266 25.9238 128.807 26.2695 127.318 26.4922C125.83 26.7148 124.395 26.8262 123.012 26.8262C122.543 26.8262 122.08 26.8145 121.623 26.791C121.166 26.7676 120.732 26.7207 120.322 26.6504L119.637 0.546875C121.465 0.40625 123.135 0.335938 124.646 0.335938C125.303 0.335938 125.965 0.347656 126.633 0.371094C127.301 0.394531 127.98 0.429688 128.672 0.476562C130.055 0.582031 131.396 0.792969 132.697 1.10938C134.01 1.41406 135.252 1.85352 136.424 2.42773C137.584 3.00195 138.604 3.75781 139.482 4.69531C140.35 5.64453 141.035 6.80469 141.539 8.17578C142.055 9.54688 142.312 11.1816 142.312 13.0801ZM139.008 12.9043C138.973 11.7793 138.779 10.748 138.428 9.81055C138.076 8.89648 137.596 8.08789 136.986 7.38477C136.389 6.66992 135.686 6.06055 134.877 5.55664C134.479 5.29883 134.057 5.07031 133.611 4.87109C133.178 4.66016 132.727 4.47266 132.258 4.30859C131.32 3.98047 130.336 3.74023 129.305 3.58789C128.273 3.43555 127.236 3.35938 126.193 3.35938C125.748 3.35938 125.273 3.37695 124.77 3.41211C124.277 3.43555 123.768 3.47656 123.24 3.53516L123.785 23.416C123.879 23.4277 123.979 23.4395 124.084 23.4512C124.189 23.4512 124.295 23.4512 124.4 23.4512H124.998C126.17 23.4512 127.336 23.3457 128.496 23.1348C130.875 22.7012 132.949 21.8809 134.719 20.6738C135.598 20.0879 136.365 19.3965 137.021 18.5996C137.666 17.8262 138.164 16.9648 138.516 16.0156C138.879 15.0547 139.043 14.0176 139.008 12.9043Z" fill="white"/>
</svg>
